<svg width="39" height="46" viewBox="0 0 39 46" fill="none" xmlns="http://www.w3.org/2000/svg">
<path d="M19.3002 45.32C14.94 45.32 10.5687 45.2758 6.20851 45.3422C4.22256 45.3753 2.91339 43.9816 2.93558 42.0679C2.97996 38.7493 2.93558 35.4307 2.95777 32.1122C2.96886 30.5525 3.83425 29.4241 5.24327 29.1144C5.50954 29.0591 5.79801 29.048 6.06428 29.048C14.9067 29.048 23.7381 29.048 32.5805 29.048C34.3446 29.048 35.6094 30.1874 35.6316 31.9352C35.676 35.4418 35.676 38.9373 35.6316 42.444C35.6094 44.1585 34.3446 45.309 32.6138 45.309C28.176 45.32 23.7381 45.32 19.3002 45.32ZM26.5339 34.6011C27.6767 34.6011 28.7862 34.5679 29.8845 34.6122C30.4836 34.6343 30.4836 34.3135 30.4726 33.8821C30.4615 33.4839 30.528 33.1188 29.9067 33.1299C28.3868 33.1631 26.8779 33.152 25.3579 33.1299C24.903 33.1188 24.781 33.2958 24.7921 33.7162C24.8032 36.0391 24.8032 38.3621 24.7921 40.6851C24.7921 41.0833 24.9141 41.2382 25.3357 41.2382C26.8668 41.2272 28.4089 41.2161 29.94 41.2493C30.528 41.2603 30.4836 40.9174 30.4836 40.5303C30.4836 40.1431 30.5724 39.7449 29.9289 39.767C28.9526 39.8112 27.9652 39.7891 26.9888 39.767C26.8224 39.767 26.5339 39.6011 26.5229 39.4904C26.4674 38.9816 26.5007 38.4728 26.5007 37.8865C27.2662 37.8865 27.9652 37.8754 28.6641 37.8865C29.0191 37.8975 29.1856 37.7648 29.1523 37.4108C29.1412 37.267 29.1412 37.1121 29.1523 36.9683C29.1967 36.559 29.0191 36.4152 28.6086 36.4263C27.9319 36.4484 27.244 36.4374 26.5339 36.4374C26.5339 35.8068 26.5339 35.2316 26.5339 34.6011ZM17.3254 33.152C17.3808 33.3843 17.403 33.4949 17.4363 33.5945C18.102 35.7958 18.7677 37.9971 19.4444 40.1984C19.8328 41.4484 19.5887 41.1829 20.8535 41.2382C21.3084 41.2603 21.5413 41.1276 21.6745 40.663C22.3513 38.4064 23.0613 36.1608 23.7603 33.9153C23.8268 33.694 23.8712 33.4728 23.96 33.152C23.4496 33.152 23.028 33.1188 22.6175 33.1741C22.44 33.1962 22.1959 33.3843 22.1405 33.5502C21.9186 34.225 21.7521 34.933 21.5635 35.6188C21.2862 36.6254 21.0199 37.621 20.7425 38.6276C20.5761 38.4617 20.5095 38.2958 20.4652 38.1298C20.0547 36.6365 19.6552 35.1431 19.2337 33.6608C19.1782 33.4728 19.0229 33.2073 18.8786 33.1852C18.3905 33.1188 17.9023 33.152 17.3254 33.152ZM8.12789 37.1896C8.12789 38.3732 8.12789 39.5457 8.12789 40.7294C8.12789 41.017 8.15007 41.2382 8.52729 41.2382C10.1582 41.2272 11.778 41.2382 13.4089 41.2161C13.531 41.2161 13.6974 41.0059 13.7529 40.851C13.8084 40.6851 13.7529 40.486 13.7751 40.309C13.8195 39.8997 13.6419 39.767 13.2314 39.767C12.2884 39.7891 11.3453 39.7559 10.4023 39.7781C9.98069 39.7891 9.82537 39.6674 9.83647 39.225C9.85866 37.5657 9.85865 35.9064 9.84756 34.2471C9.83646 33.0193 10.0362 33.1631 8.7159 33.1299C8.28321 33.1188 8.12789 33.2626 8.13898 33.694C8.13898 34.8666 8.12789 36.0281 8.12789 37.1896ZM16.3712 37.1896C16.3712 36.1719 16.3823 35.1653 16.3712 34.1476C16.3601 33.0082 16.5266 33.1852 15.3727 33.1409C14.8291 33.1188 14.6848 33.3069 14.6959 33.8268C14.7181 35.9285 14.6959 38.0303 14.707 40.132C14.7181 41.371 14.5184 41.2161 15.8276 41.2603C16.2825 41.2714 16.3934 41.1055 16.3823 40.6851C16.3601 39.5015 16.3712 38.34 16.3712 37.1896Z" fill="white"/>
<path d="M19.2668 27.234C15.6056 27.234 11.9444 27.2229 8.28312 27.245C7.85043 27.245 7.61744 27.1012 7.41774 26.7362C2.55827 18.1964 7.77277 7.64342 17.5361 6.28281C25.0694 5.23193 32.181 10.8292 32.9355 18.3845C33.235 21.3601 32.6581 24.1367 31.1936 26.7362C30.9828 27.1012 30.7498 27.245 30.3171 27.245C26.6226 27.234 22.9503 27.234 19.2668 27.234ZM16.2713 18.6389C16.2602 20.0438 16.2491 21.4376 16.2602 22.8424C16.2713 23.7937 16.7705 24.0813 17.5805 23.5946C19.8438 22.2008 22.096 20.796 24.3482 19.3801C25.0139 18.9597 25.025 18.4287 24.3482 18.0084C22.0849 16.5925 19.8105 15.1765 17.525 13.7717C16.7816 13.3182 16.2713 13.6168 16.2602 14.4907C16.2713 15.8845 16.2713 17.2672 16.2713 18.6389Z" fill="white"/>
<path d="M0.228516 19.889C0.228516 10.9731 6.34168 3.19661 15.0843 1.36034C22.4511 -0.188323 28.8749 1.82494 33.7677 7.5771C38.9489 13.6722 39.6923 20.5748 36.6301 27.9199C36.6079 27.9752 36.5857 28.0194 36.5636 28.0747C36.386 28.4398 36.0976 28.6278 35.7093 28.4287C35.3209 28.2296 35.3099 27.8977 35.4874 27.5327C36.7411 24.9663 37.318 22.2341 37.207 19.3912C37.0406 14.889 35.4319 10.9399 32.3143 7.6656C29.0636 4.25854 25.0695 2.3559 20.3542 2.09042C15.173 1.80281 10.6575 3.45103 6.9186 7.03507C3.05765 10.7187 1.27141 15.2983 1.40455 20.5969C1.46002 22.9752 2.03695 25.265 3.06875 27.4221C3.25736 27.8203 3.35721 28.1632 2.91342 28.4176C2.5473 28.6389 2.24774 28.4619 1.98147 27.9199C0.827626 25.5194 0.228516 22.7872 0.228516 19.889Z" fill="white"/>
</svg>
